<svg width="150" height="67" viewBox="0 0 150 67" fill="none" xmlns="http://www.w3.org/2000/svg">
<g clip-path="url(#clip0)">
<path d="M31.9343 32.294C31.9446 32.2781 31.9591 32.2655 31.9762 32.2575L46.7164 25.3994C46.7454 25.3859 46.779 25.3871 46.807 25.4026L53.4881 29.1032C53.5623 29.1443 53.5549 29.2533 53.4758 29.2839L39.8771 34.5564C39.8594 34.5633 39.844 34.575 39.8328 34.5903L35.9102 39.9133C35.9034 39.9225 35.8983 39.9327 35.895 39.9436L32.051 52.6119C32.0219 52.708 31.8851 52.706 31.8588 52.6091L28.0117 38.4386C28.0042 38.4113 28.0088 38.3821 28.0241 38.3582L31.9343 32.294Z" fill="#414141"/>
<path d="M45.3103 35.4345C45.2848 35.3803 45.3124 35.3161 45.3693 35.2972L51.9972 33.0945C52.0731 33.0693 52.1464 33.139 52.1251 33.2161L49.2846 43.4951C49.2598 43.5846 49.1371 43.595 49.0976 43.511L45.3103 35.4345Z" fill="#414141"/>
<path d="M76.95 29.9724V26.9094H61.85L54.3593 26.1834C54.255 26.1733 54.2074 26.31 54.2954 26.3669L59.8502 29.9564C59.8664 29.9669 59.8852 29.9724 59.9045 29.9724H76.95Z" fill="#414141"/>
<path d="M75.95 7V25.378H67.0875C67.0323 25.378 66.9875 25.3332 66.9875 25.278V7.1C66.9875 7.04477 67.0323 7 67.0875 7H75.95Z" fill="#414141"/>
<path d="M69.95 61L70.5727 31.6061C70.5739 31.55 70.5288 31.5039 70.4728 31.5039H67.122C67.0786 31.5039 67.0402 31.5319 67.0269 31.5733L64.0915 40.678C64.0883 40.6879 64.0867 40.6982 64.0867 40.7086V47.5637C64.0867 47.5775 64.0896 47.5912 64.0951 47.6038L69.95 61Z" fill="#414141"/>
<path d="M58.0755 7.81006C58.0909 7.7822 58.1186 7.76334 58.1502 7.75926L63.9122 7.01458C63.972 7.00685 64.025 7.05344 64.025 7.11376V25.2671C64.025 25.3264 63.9737 25.3726 63.9147 25.3666L49.3629 23.862C49.2916 23.8546 49.251 23.7769 49.2856 23.7142L58.0755 7.81006Z" fill="#414141"/>
<path d="M114.466 32.294C114.455 32.2781 114.441 32.2655 114.424 32.2575L99.6836 25.3994C99.6547 25.3859 99.621 25.3871 99.593 25.4026L92.9119 29.1032C92.8377 29.1443 92.8451 29.2533 92.9242 29.2839L106.523 34.5564C106.541 34.5633 106.556 34.575 106.567 34.5903L110.49 39.9133C110.497 39.9225 110.502 39.9327 110.505 39.9436L114.349 52.6119C114.378 52.708 114.515 52.706 114.541 52.6091L118.388 38.4386C118.396 38.4113 118.391 38.3821 118.376 38.3582L114.466 32.294Z" fill="#414141"/>
<path d="M94.5897 35.4345C94.6151 35.3803 94.5875 35.3161 94.5307 35.2972L87.9028 33.0945C87.8269 33.0693 87.7536 33.139 87.7749 33.2161L90.6154 43.4951C90.6402 43.5846 90.7629 43.595 90.8024 43.511L94.5897 35.4345Z" fill="#414141"/>
<path d="M76.95 29.9724V26.9094H85.05L92.5407 26.1834C92.645 26.1733 92.6926 26.31 92.6046 26.3669L87.0498 29.9564C87.0336 29.9669 87.0148 29.9724 86.9955 29.9724H76.95Z" fill="#414141"/>
<path d="M75.95 7V25.378H78.8125C78.8677 25.378 78.9125 25.3332 78.9125 25.278V7.1C78.9125 7.04477 78.8677 7 78.8125 7H75.95Z" fill="#414141"/>
<path d="M69.95 61L69.1735 31.6066C69.172 31.5503 69.2172 31.5039 69.2735 31.5039H72.7779C72.8214 31.5039 72.8598 31.5319 72.8731 31.5733L75.8085 40.678C75.8117 40.6879 75.8133 40.6982 75.8133 40.7086V47.5637C75.8133 47.5775 75.8104 47.5912 75.8049 47.6038L69.95 61Z" fill="#414141"/>
<path d="M87.3995 7.81006C87.3841 7.7822 87.3564 7.76334 87.3248 7.75926L81.5628 7.01458C81.503 7.00685 81.45 7.05344 81.45 7.11376V25.2671C81.45 25.3264 81.5013 25.3726 81.5603 25.3666L96.1121 23.862C96.1834 23.8546 96.224 23.7769 96.1894 23.7142L87.3995 7.81006Z" fill="#414141"/>
<path d="M34.2879 52.3574H35.4891V53.7988H38.8875V46.5977H40.0887V53.7988C40.0887 53.9629 40.0555 54.1191 39.9891 54.2676C39.9266 54.4121 39.8406 54.5391 39.7313 54.6484C39.6258 54.7578 39.4988 54.8438 39.3504 54.9062C39.2059 54.9688 39.0516 55 38.8875 55H35.4891C35.325 55 35.1688 54.9688 35.0203 54.9062C34.8758 54.8438 34.7488 54.7578 34.6395 54.6484C34.534 54.5391 34.4481 54.4121 34.3817 54.2676C34.3192 54.1191 34.2879 53.9629 34.2879 53.7988V52.3574ZM47.5301 53.8457C47.5301 54.0059 47.4988 54.1562 47.4363 54.2969C47.3777 54.4375 47.2957 54.5605 47.1902 54.666C47.0887 54.7676 46.9676 54.8496 46.827 54.9121C46.6902 54.9707 46.5418 55 46.3817 55H43.282C43.1258 55 42.9774 54.9707 42.8367 54.9121C42.6961 54.8496 42.5731 54.7676 42.4676 54.666C42.366 54.5605 42.284 54.4375 42.2215 54.2969C42.1629 54.1562 42.1336 54.0059 42.1336 53.8457V49.9141C42.1336 49.7539 42.1629 49.6035 42.2215 49.4629C42.284 49.3223 42.366 49.2012 42.4676 49.0996C42.5731 48.9941 42.6961 48.9121 42.8367 48.8535C42.9774 48.791 43.1258 48.7598 43.282 48.7598H46.3817C46.5418 48.7598 46.6902 48.791 46.827 48.8535C46.9676 48.9121 47.0887 48.9941 47.1902 49.0996C47.2957 49.2012 47.3777 49.3223 47.4363 49.4629C47.4988 49.6035 47.5301 49.7539 47.5301 49.9141V53.8457ZM43.282 49.9141V53.8457H46.3817V49.9141H43.282ZM54.9774 53.8457C54.9774 54.0059 54.9461 54.1562 54.8836 54.2969C54.825 54.4375 54.743 54.5605 54.6375 54.666C54.5359 54.7676 54.4149 54.8496 54.2742 54.9121C54.1336 54.9707 53.9832 55 53.8231 55H50.6063C50.45 55 50.3016 54.9707 50.1609 54.9121C50.0203 54.8496 49.8973 54.7676 49.7918 54.666C49.6902 54.5605 49.6082 54.4375 49.5457 54.2969C49.4871 54.1562 49.4578 54.0059 49.4578 53.8457V46.3574H50.6063V49.8613C50.6141 49.709 50.6492 49.5664 50.7117 49.4336C50.7742 49.2969 50.8563 49.1797 50.9578 49.082C51.0633 48.9805 51.1844 48.9023 51.3211 48.8477C51.4578 48.7891 51.6043 48.7598 51.7606 48.7598H53.8231C53.9832 48.7598 54.1336 48.791 54.2742 48.8535C54.4149 48.9121 54.5359 48.9941 54.6375 49.0996C54.743 49.2012 54.825 49.3223 54.8836 49.4629C54.9461 49.6035 54.9774 49.7539 54.9774 49.9141V53.8457ZM50.6063 49.9141V53.8457H53.8231V49.9141H50.6063ZM60.6668 53.8457V52.3984H57.9305C57.7703 52.3984 57.6199 52.3691 57.4793 52.3105C57.3387 52.248 57.2156 52.166 57.1102 52.0645C57.0086 51.959 56.9266 51.8359 56.8641 51.6953C56.8055 51.5547 56.7762 51.4043 56.7762 51.2441V49.9141C56.7762 49.7539 56.8055 49.6035 56.8641 49.4629C56.9266 49.3223 57.0086 49.2012 57.1102 49.0996C57.2156 48.9941 57.3387 48.9121 57.4793 48.8535C57.6199 48.791 57.7703 48.7598 57.9305 48.7598H61.5809V49.9141H57.9305V51.2441H60.6668C60.827 51.2441 60.9754 51.2754 61.1121 51.3379C61.2527 51.3965 61.3758 51.4785 61.4813 51.584C61.5867 51.6855 61.6688 51.8066 61.7274 51.9473C61.7899 52.0879 61.8211 52.2383 61.8211 52.3984V53.8457C61.8211 54.0059 61.7899 54.1562 61.7274 54.2969C61.6688 54.4375 61.5867 54.5605 61.4813 54.666C61.3758 54.7676 61.2527 54.8496 61.1121 54.9121C60.9754 54.9707 60.827 55 60.6668 55H56.7762V53.8457H60.6668Z" fill="black"/>
<path d="M78.7293 51.4023C78.5652 51.4023 78.409 51.3711 78.2606 51.3086C78.116 51.2422 77.9891 51.1562 77.8797 51.0508C77.7703 50.9414 77.6844 50.8145 77.6219 50.6699C77.5594 50.5215 77.5281 50.3652 77.5281 50.2012V47.7988C77.5281 47.6348 77.5594 47.4805 77.6219 47.3359C77.6844 47.1875 77.7703 47.0605 77.8797 46.9551C77.9891 46.8457 78.116 46.7598 78.2606 46.6973C78.409 46.6309 78.5652 46.5977 78.7293 46.5977H82.8074C82.9715 46.5977 83.1258 46.6309 83.2703 46.6973C83.4188 46.7598 83.5477 46.8457 83.657 46.9551C83.7664 47.0605 83.8524 47.1875 83.9149 47.3359C83.9774 47.4805 84.0086 47.6348 84.0086 47.7988V48.8828H82.8074V47.7988H78.7293V50.2012H82.8074C82.9715 50.2012 83.1258 50.2324 83.2703 50.2949C83.4188 50.3574 83.5477 50.4434 83.657 50.5527C83.7664 50.6621 83.8524 50.791 83.9149 50.9395C83.9774 51.084 84.0086 51.2383 84.0086 51.4023V53.7988C84.0086 53.9629 83.9774 54.1191 83.9149 54.2676C83.8524 54.4121 83.7664 54.5391 83.657 54.6484C83.5477 54.7578 83.4188 54.8438 83.2703 54.9062C83.1258 54.9688 82.9715 55 82.8074 55H78.6121C78.4481 55 78.2918 54.9688 78.1434 54.9062C77.9988 54.8438 77.8719 54.7578 77.7625 54.6484C77.6531 54.5391 77.5672 54.4121 77.5047 54.2676C77.4422 54.1191 77.4109 53.9629 77.4109 53.7988V52.7207H78.6121V53.7988H82.8074V51.4023H78.7293ZM87.2078 49.9141V53.8457H90.1844V52.791H91.3387V53.8457C91.3387 54.0059 91.3074 54.1562 91.2449 54.2969C91.1863 54.4375 91.1043 54.5605 90.9988 54.666C90.8973 54.7676 90.7762 54.8496 90.6356 54.9121C90.4949 54.9707 90.3445 55 90.1844 55H87.2078C87.0516 55 86.9031 54.9707 86.7625 54.9121C86.6219 54.8496 86.4988 54.7676 86.3934 54.666C86.2918 54.5605 86.2098 54.4375 86.1473 54.2969C86.0887 54.1562 86.0594 54.0059 86.0594 53.8457V49.9141C86.0594 49.7539 86.0887 49.6035 86.1473 49.4629C86.2098 49.3223 86.2918 49.2012 86.3934 49.0996C86.4988 48.9941 86.6219 48.9121 86.7625 48.8535C86.9031 48.791 87.0516 48.7598 87.2078 48.7598H90.1844C90.3445 48.7598 90.4949 48.791 90.6356 48.8535C90.7762 48.9121 90.8973 48.9941 90.9988 49.0996C91.1043 49.2012 91.1863 49.3223 91.2449 49.4629C91.3074 49.6035 91.3387 49.7539 91.3387 49.9141V50.9688H90.1844V49.9141H87.2078ZM94.4149 49.9141V55H93.2664V48.7598H94.4149V49.8613C94.4227 49.709 94.4578 49.5664 94.5203 49.4336C94.5828 49.2969 94.6649 49.1797 94.7664 49.082C94.8719 48.9805 94.993 48.9023 95.1297 48.8477C95.2664 48.7891 95.4129 48.7598 95.5692 48.7598H96.7938C96.9539 48.7598 97.1024 48.791 97.2391 48.8535C97.3797 48.9121 97.5027 48.9941 97.6082 49.0996C97.7137 49.2012 97.7957 49.3223 97.8543 49.4629C97.9168 49.6035 97.9481 49.7539 97.9481 49.9141V50.9688H96.7938V49.9141H94.4149ZM99.3836 52.2754C99.3836 52.1152 99.4129 51.9668 99.4715 51.8301C99.534 51.6895 99.616 51.5664 99.7176 51.4609C99.8231 51.3555 99.9461 51.2734 100.087 51.2148C100.227 51.1523 100.376 51.1211 100.532 51.1211H103.509V49.9141H99.741V48.7598H103.509C103.669 48.7598 103.819 48.791 103.96 48.8535C104.1 48.9121 104.221 48.9941 104.323 49.0996C104.429 49.2012 104.511 49.3223 104.569 49.4629C104.632 49.6035 104.663 49.7539 104.663 49.9141V55H103.509V53.9453C103.497 54.0898 103.458 54.2266 103.391 54.3555C103.325 54.4844 103.239 54.5977 103.134 54.6953C103.032 54.7891 102.915 54.8633 102.782 54.918C102.649 54.9727 102.509 55 102.36 55H100.532C100.376 55 100.227 54.9707 100.087 54.9121C99.9461 54.8496 99.8231 54.7676 99.7176 54.666C99.616 54.5605 99.534 54.4375 99.4715 54.2969C99.4129 54.1562 99.3836 54.0059 99.3836 53.8457V52.2754ZM100.532 53.8457H103.509V52.2754H100.532V53.8457ZM112.11 53.8457C112.11 54.0059 112.079 54.1562 112.016 54.2969C111.958 54.4375 111.876 54.5605 111.77 54.666C111.669 54.7676 111.548 54.8496 111.407 54.9121C111.266 54.9707 111.116 55 110.956 55H107.739V57.5195H106.591V48.7598H107.739V49.8145C107.751 49.666 107.79 49.5293 107.856 49.4043C107.923 49.2754 108.007 49.1641 108.108 49.0703C108.21 48.9727 108.327 48.8965 108.46 48.8418C108.596 48.7871 108.741 48.7598 108.893 48.7598H110.956C111.116 48.7598 111.266 48.791 111.407 48.8535C111.548 48.9121 111.669 48.9941 111.77 49.0996C111.876 49.2012 111.958 49.3223 112.016 49.4629C112.079 49.6035 112.11 49.7539 112.11 49.9141V53.8457ZM110.956 53.8457V49.9141H107.739V53.8457H110.956Z" fill="black"/>
</g>
<defs>
<clipPath id="clip0">
<rect width="150" height="67" fill="white"/>
</clipPath>
</defs>
</svg>
